<?xml version="1.0" encoding="UTF-8"?>
<!DOCTYPE svg PUBLIC "-//W3C//DTD SVG 1.1//EN" "http://www.w3.org/Graphics/SVG/1.1/DTD/svg11.dtd">
<svg xmlns="http://www.w3.org/2000/svg" version="1.1" width="1024px" height="1024px" style="shape-rendering:geometricPrecision; text-rendering:geometricPrecision; image-rendering:optimizeQuality; fill-rule:evenodd; clip-rule:evenodd" xmlns:xlink="http://www.w3.org/1999/xlink">
<g><path style="opacity:1" fill="#333333" d="M -0.5,-0.5 C 340.833,-0.5 682.167,-0.5 1023.5,-0.5C 1023.5,340.833 1023.5,682.167 1023.5,1023.5C 682.167,1023.5 340.833,1023.5 -0.5,1023.5C -0.5,682.167 -0.5,340.833 -0.5,-0.5 Z"/></g>
<g><path style="opacity:1" fill="#f7f7f6" d="M 550.5,412.5 C 553.47,428.763 548.47,441.93 535.5,452C 517.829,460.619 502.662,457.452 490,442.5C 484.552,432.424 483.052,421.757 485.5,410.5C 498.78,387.917 516.78,383.417 539.5,397C 544.225,401.536 547.892,406.702 550.5,412.5 Z"/></g>
<g><path style="opacity:1" fill="#f7f7f5" d="M 608.5,418.5 C 608.005,439.498 597.338,448.998 576.5,447C 565.036,442.919 559.37,434.753 559.5,422.5C 559.366,418.645 560.033,414.978 561.5,411.5C 574.783,394.893 588.949,394.226 604,409.5C 605.546,412.592 607.046,415.592 608.5,418.5 Z"/></g>
<g><path style="opacity:1" fill="#2f2f2f" d="M 510.5,399.5 C 531.664,397.834 541.831,407.5 541,428.5C 536.518,442.328 527.018,448.495 512.5,447C 495.259,439.94 490.092,427.774 497,410.5C 500.666,405.758 505.166,402.092 510.5,399.5 Z"/></g>
<g><path style="opacity:1" fill="#f9f8f6" d="M 420.5,417.5 C 422.044,435.302 414.378,441.636 397.5,436.5C 389.168,427.669 389.501,419.169 398.5,411C 407.664,407.405 414.997,409.572 420.5,417.5 Z"/></g>
<g><path style="opacity:1" fill="#f6f6f4" d="M 476.5,426.5 C 472.148,442.345 461.814,449.178 445.5,447C 431.309,441.12 425.643,430.62 428.5,415.5C 436.886,398.649 449.553,394.483 466.5,403C 474.362,408.892 477.695,416.726 476.5,426.5 Z"/></g>
<g><path style="opacity:1" fill="#2e2d2d" d="M 485.5,410.5 C 483.052,421.757 484.552,432.424 490,442.5C 502.662,457.452 517.829,460.619 535.5,452C 548.47,441.93 553.47,428.763 550.5,412.5C 551.189,411.226 552.023,411.226 553,412.5C 554.134,408.86 555.134,409.193 556,413.5C 556.249,412.376 556.749,411.376 557.5,410.5C 558.905,410.76 560.238,411.093 561.5,411.5C 560.033,414.978 559.366,418.645 559.5,422.5C 559.37,434.753 565.036,442.919 576.5,447C 597.338,448.998 608.005,439.498 608.5,418.5C 609.42,417.933 609.754,418.599 609.5,420.5C 610.5,420.5 611.5,420.5 612.5,420.5C 612.354,415.863 613.021,415.53 614.5,419.5C 614.205,434.042 621.205,440.209 635.5,438C 637.996,436.334 640.329,434.5 642.5,432.5C 644.688,433.536 644.688,435.036 642.5,437C 643.167,437.667 643.833,438.333 644.5,439C 642.497,441.002 640.164,442.502 637.5,443.5C 638.55,444.429 638.55,445.095 637.5,445.5C 619.273,443.245 608.606,451.078 605.5,469C 607.864,488.015 618.53,496.182 637.5,493.5C 638.756,493.461 639.756,493.961 640.5,495C 639.333,496.167 638.167,497.333 637,498.5C 634.446,497.229 631.613,496.562 628.5,496.5C 625.833,496.667 623.167,496.833 620.5,497C 620.833,497.333 621.167,497.667 621.5,498C 618.625,498.895 618.292,499.728 620.5,500.5C 624.465,499.47 628.465,499.303 632.5,500C 630.292,500.191 628.292,500.691 626.5,501.5C 611.266,503.893 601.433,512.56 597,527.5C 594.92,548.401 603.754,562.234 623.5,569C 632.829,570.168 641.496,568.334 649.5,563.5C 651.648,563.389 651.981,564.056 650.5,565.5C 652.807,567.328 652.474,568.994 649.5,570.5C 648.5,571.833 647.5,571.833 646.5,570.5C 645.281,571.646 643.948,572.646 642.5,573.5C 643.025,574.192 643.692,574.692 644.5,575C 642.965,575.496 641.465,575.33 640,574.5C 638.272,574.899 636.772,575.566 635.5,576.5C 620.709,575.145 610.876,581.478 606,595.5C 604.358,608.887 609.525,618.553 621.5,624.5C 620.571,625.315 619.571,626.148 618.5,627C 619.833,627.667 621.167,628.333 622.5,629C 620.947,630.097 619.614,631.43 618.5,633C 619.737,633.232 620.737,633.732 621.5,634.5C 612.26,642.846 612.26,651.346 621.5,660C 628.092,663.418 634.426,662.918 640.5,658.5C 640.918,659.222 641.584,659.722 642.5,660C 640.5,661.333 638.5,662.667 636.5,664C 631.78,664.221 627.113,664.721 622.5,665.5C 619.494,665.064 617.494,664.064 616.5,662.5C 614.655,663.938 613.489,663.604 613,661.5C 609.889,664.597 606.222,667.93 602,671.5C 601.667,671.167 601.333,670.833 601,670.5C 600.167,672 599,673.167 597.5,674C 597.833,674.333 598.167,674.667 598.5,675C 596.422,677.134 594.588,676.968 593,674.5C 592.586,674.957 592.086,675.291 591.5,675.5C 587.064,673.803 582.397,672.969 577.5,673C 575.369,672.457 573.369,671.624 571.5,670.5C 571.957,669.702 572.624,669.369 573.5,669.5C 593.355,674.082 605.022,666.416 608.5,646.5C 607.093,634.183 600.426,626.349 588.5,623C 567.959,622.042 558.292,631.875 559.5,652.5C 558.876,652.917 558.543,653.584 558.5,654.5C 559.497,657.162 560.497,659.828 561.5,662.5C 560.45,664.102 561.117,664.935 563.5,665C 562,665.833 560.833,667 560,668.5C 559.094,666.388 557.594,665.555 555.5,666C 555.957,666.414 556.291,666.914 556.5,667.5C 552.907,667.926 550.74,669.926 550,673.5C 549.667,672.833 549.333,672.167 549,671.5C 547.615,672.551 546.615,673.884 546,675.5C 545,674.167 544,674.167 543,675.5C 542.549,673.071 541.715,672.904 540.5,675C 541.097,676.889 541.431,678.722 541.5,680.5C 541.192,681.308 540.692,681.975 540,682.5C 539.333,681.167 538.333,680.167 537,679.5C 534.49,680.109 532.49,681.442 531,683.5C 529.989,682.663 528.822,682.33 527.5,682.5C 527.5,681.167 527.5,679.833 527.5,678.5C 545.304,671.249 553.137,657.916 551,638.5C 543.953,619.728 530.453,611.228 510.5,613C 490.431,619.627 481.931,633.46 485,654.5C 491.322,672.75 504.155,681.083 523.5,679.5C 523.938,679.435 524.272,679.601 524.5,680C 522.884,680.615 521.551,681.615 520.5,683C 519.216,683.684 518.049,683.517 517,682.5C 516.213,683.711 515.546,684.711 515,685.5C 511.728,685.199 509.061,683.865 507,681.5C 506,682.833 505,682.833 504,681.5C 503.085,682.328 502.419,683.328 502,684.5C 501.667,683.167 501.333,681.833 501,680.5C 500.667,680.833 500.333,681.167 500,681.5C 497.134,679.269 494.467,676.936 492,674.5C 491.282,675.451 490.449,675.617 489.5,675C 490.673,671.89 490.173,671.723 488,674.5C 487.683,672.699 487.016,672.366 486,673.5C 484.088,672.308 482.088,671.308 480,670.5C 476.882,671.397 473.882,671.397 471,670.5C 469.173,671.105 467.84,672.772 467,675.5C 465.209,673.487 463.875,673.487 463,675.5C 457.687,673.526 452.187,673.026 446.5,674C 445.953,674.925 445.287,675.758 444.5,676.5C 442.383,675.468 440.217,675.468 438,676.5C 437.167,676.333 436.333,676.167 435.5,676C 436.34,674.334 435.84,674.167 434,675.5C 433.535,674.069 432.701,672.903 431.5,672C 432,671.5 432.5,671 433,670.5C 434.987,674.367 435.487,674.367 434.5,670.5C 431.935,668.724 429.435,667.058 427,665.5C 426.667,665.833 426.333,666.167 426,666.5C 422.98,663.842 419.98,663.842 417,666.5C 415.124,664.877 413.79,665.21 413,667.5C 412.517,666.552 412.351,665.552 412.5,664.5C 408.154,664.666 403.821,664.499 399.5,664C 398.167,663 396.833,662 395.5,661C 396.044,660.283 396.711,659.783 397.5,659.5C 414.661,664.502 422.161,658.168 420,640.5C 414.991,633.107 408.158,630.774 399.5,633.5C 398.226,632.811 398.226,631.977 399.5,631C 398.672,630.085 397.672,629.419 396.5,629C 400.353,628.338 400.353,627.504 396.5,626.5C 395.833,626.667 395.167,626.833 394.5,627C 395.696,627.654 395.696,628.154 394.5,628.5C 393.549,627.674 392.549,627.508 391.5,628C 388.337,630.005 385.337,632.172 382.5,634.5C 381.386,633.277 381.219,631.944 382,630.5C 382.333,630.833 382.667,631.167 383,631.5C 383.374,630.584 383.874,629.75 384.5,629C 381.844,627.997 380.844,626.33 381.5,624C 378.89,623.776 376.39,624.276 374,625.5C 372.581,624.54 371.081,623.707 369.5,623C 371.421,622.64 373.088,621.806 374.5,620.5C 376.07,620.694 377.57,620.694 379,620.5C 379.691,622.891 380.691,622.891 382,620.5C 382.333,621.167 382.667,621.833 383,622.5C 383.49,621.207 383.657,619.873 383.5,618.5C 380.68,618.752 378.014,618.252 375.5,617C 376.667,616.5 377.5,615.667 378,614.5C 378.333,615.167 378.667,615.833 379,616.5C 378.954,614.687 379.12,613.021 379.5,611.5C 380.192,612.025 380.692,612.692 381,613.5C 381.671,612.748 382.504,612.414 383.5,612.5C 391.087,624.444 401.753,628.278 415.5,624C 426.824,617.852 431.658,608.352 430,595.5C 424.619,580.723 414.119,574.557 398.5,577C 389.067,580.263 383.401,586.763 381.5,596.5C 380.675,600.647 380.175,604.981 380,609.5C 378.558,604.691 378.058,599.691 378.5,594.5C 377.325,594.719 376.325,594.386 375.5,593.5C 376.297,591.868 377.297,590.368 378.5,589C 378.095,588.055 377.428,587.388 376.5,587C 377.833,586.333 379.167,585.667 380.5,585C 379.5,584.667 378.5,584.333 377.5,584C 378.667,583.5 379.5,582.667 380,581.5C 380.333,582.167 380.667,582.833 381,583.5C 381.81,581.694 382.976,580.194 384.5,579C 383.99,577.174 383.156,577.007 382,578.5C 380.858,576.382 380.358,574.382 380.5,572.5C 382.374,572.906 384.04,572.072 385.5,570C 382.898,569.261 381.231,567.595 380.5,565C 381.738,565.077 382.738,564.911 383.5,564.5C 381.65,562.482 379.65,560.649 377.5,559C 378.416,558.722 379.082,558.222 379.5,557.5C 393.394,571.214 408.727,573.047 425.5,563C 440.672,549.738 443.505,534.238 434,516.5C 420.843,500.754 405.01,497.421 386.5,506.5C 385.814,505.152 384.814,503.985 383.5,503C 384.57,500.258 386.07,497.758 388,495.5C 389.796,496.767 391.629,496.767 393.5,495.5C 394.592,496.831 395.926,497.664 397.5,498C 397.167,498.333 396.833,498.667 396.5,499C 399.053,499.851 401.386,499.518 403.5,498C 398.066,496.785 393.399,494.285 389.5,490.5C 389.624,489.893 389.957,489.56 390.5,489.5C 403.071,497.191 414.571,495.858 425,485.5C 435.082,467.83 430.916,454.664 412.5,446C 408.179,445.501 403.846,445.334 399.5,445.5C 398.668,444.671 399.001,443.838 400.5,443C 397.258,442.717 396.924,441.883 399.5,440.5C 398.092,439.757 396.759,438.923 395.5,438C 396.044,437.283 396.711,436.783 397.5,436.5C 414.378,441.636 422.044,435.302 420.5,417.5C 420.56,416.957 420.893,416.624 421.5,416.5C 422.584,417.665 423.417,418.998 424,420.5C 425.036,417.705 426.369,415.038 428,412.5C 428.483,413.448 428.649,414.448 428.5,415.5C 425.643,430.62 431.309,441.12 445.5,447C 461.814,449.178 472.148,442.345 476.5,426.5C 477.317,424.031 477.817,421.365 478,418.5C 478.914,422.142 479.748,425.808 480.5,429.5C 480.913,422.986 482.08,416.653 484,410.5C 484.69,409.262 485.19,409.262 485.5,410.5 Z"/></g>
<g><path style="opacity:1" fill="#f7f7f5" d="M 642.5,432.5 C 640.329,434.5 637.996,436.334 635.5,438C 621.205,440.209 614.205,434.042 614.5,419.5C 620.719,407.634 629.386,405.467 640.5,413C 645.076,419.025 645.743,425.525 642.5,432.5 Z"/></g>
<g><path style="opacity:1" fill="#272828" d="M 403.5,419.5 C 410.486,419.331 412.153,422.164 408.5,428C 401.946,427.957 400.279,425.123 403.5,419.5 Z"/></g>
<g><path style="opacity:1" fill="#323232" d="M 578.5,408.5 C 591.999,407.171 598.499,413.171 598,426.5C 593.038,438.564 584.872,441.397 573.5,435C 565.532,424.193 567.199,415.359 578.5,408.5 Z"/></g>
<g><path style="opacity:1" fill="#2b2c2c" d="M 626.5,419.5 C 633.716,418.688 635.716,421.355 632.5,427.5C 625.793,428.772 623.793,426.105 626.5,419.5 Z"/></g>
<g><path style="opacity:1" fill="#313131" d="M 446.5,408.5 C 462.341,407.166 468.841,414.166 466,429.5C 461.464,436.844 454.964,439.344 446.5,437C 439.024,432.585 436.191,426.085 438,417.5C 440.362,413.973 443.196,410.973 446.5,408.5 Z"/></g>
<g><path style="opacity:1" fill="#f7f7f6" d="M 399.5,445.5 C 403.846,445.334 408.179,445.501 412.5,446C 430.916,454.664 435.082,467.83 425,485.5C 414.571,495.858 403.071,497.191 390.5,489.5C 382.536,482.211 379.703,473.211 382,462.5C 385.207,454.006 391.04,448.339 399.5,445.5 Z"/></g>
<g><path style="opacity:1" fill="#f7f6f5" d="M 637.5,445.5 C 654.358,453.566 658.858,466.232 651,483.5C 647.421,488.269 642.921,491.603 637.5,493.5C 618.53,496.182 607.864,488.015 605.5,469C 608.606,451.078 619.273,443.245 637.5,445.5 Z"/></g>
<g><path style="opacity:1" fill="#313131" d="M 401.5,454.5 C 416.156,454.31 422.322,461.31 420,475.5C 414.31,484.773 406.477,486.94 396.5,482C 387.265,470.801 388.932,461.634 401.5,454.5 Z"/></g>
<g><path style="opacity:1" fill="#313131" d="M 625.5,454.5 C 640.671,454.491 646.837,461.824 644,476.5C 639.351,483.499 632.851,485.999 624.5,484C 616.443,479.53 613.61,472.697 616,463.5C 618.406,459.592 621.572,456.592 625.5,454.5 Z"/></g>
<g><path style="opacity:1" fill="#f6f6f6" d="M 510.5,464.5 C 533.191,463.356 543.358,474.022 541,496.5C 535.488,508.841 525.988,514.341 512.5,513C 497.734,507.644 491.568,497.144 494,481.5C 497.045,473.29 502.545,467.623 510.5,464.5 Z"/></g>
<g><path style="opacity:1" fill="#f8f7f7" d="M 456.5,465.5 C 473.68,464.575 479.847,472.241 475,488.5C 467.835,495.455 460.001,496.288 451.5,491C 447.681,485.795 446.514,479.962 448,473.5C 450.074,469.923 452.907,467.256 456.5,465.5 Z"/></g>
<g><path style="opacity:1" fill="#f5f5f4" d="M 569.5,464.5 C 586.994,465.135 592.494,473.468 586,489.5C 574.512,498.862 565.512,496.862 559,483.5C 557.804,474.557 561.304,468.223 569.5,464.5 Z"/></g>
<g><path style="opacity:1" fill="#2f2f2f" d="M 513.5,473.5 C 527.548,473.043 533.714,479.71 532,493.5C 527.442,502.861 520.275,505.694 510.5,502C 502.727,496.348 500.894,489.181 505,480.5C 507.416,477.577 510.25,475.243 513.5,473.5 Z"/></g>
<g><path style="opacity:1" fill="#323131" d="M 459.5,474.5 C 466.803,474.602 468.803,477.769 465.5,484C 460.643,485.753 457.643,484.253 456.5,479.5C 457.092,477.577 458.092,475.911 459.5,474.5 Z"/></g>
<g><path style="opacity:1" fill="#2d2d2c" d="M 571.5,474.5 C 578.745,474.555 580.745,477.722 577.5,484C 568.219,485.234 566.219,482.067 571.5,474.5 Z"/></g>
<g><path style="opacity:1" fill="#f7f7f6" d="M 379.5,557.5 C 376.813,552.785 374.646,547.785 373,542.5C 371.092,532.742 372.759,523.742 378,515.5C 380.362,511.973 383.196,508.973 386.5,506.5C 405.01,497.421 420.843,500.754 434,516.5C 443.505,534.238 440.672,549.738 425.5,563C 408.727,573.047 393.394,571.214 379.5,557.5 Z"/></g>
<g><path style="opacity:1" fill="#f5f5f5" d="M 464.5,510.5 C 480.131,508.557 490.631,514.891 496,529.5C 496.783,550.05 486.95,559.883 466.5,559C 448.937,552.369 443.437,540.202 450,522.5C 453.811,517.189 458.644,513.189 464.5,510.5 Z"/></g>
<g><path style="opacity:1" fill="#f8f8f7" d="M 556.5,510.5 C 578.05,509.221 588.55,519.221 588,540.5C 582.442,555.712 571.609,561.546 555.5,558C 539.803,549.774 535.636,537.607 543,521.5C 546.769,516.894 551.269,513.227 556.5,510.5 Z"/></g>
<g><path style="opacity:1" fill="#2f2f2f" d="M 398.5,511.5 C 420.238,510.072 430.405,520.072 429,541.5C 424.056,555.394 414.222,561.228 399.5,559C 386.189,553.673 380.356,543.84 382,529.5C 384.592,520.745 390.092,514.745 398.5,511.5 Z"/></g>
<g><path style="opacity:1" fill="#f6f5f4" d="M 626.5,501.5 C 642.924,500.76 654.757,507.76 662,522.5C 666.956,539.021 662.789,552.688 649.5,563.5C 641.496,568.334 632.829,570.168 623.5,569C 603.754,562.234 594.92,548.401 597,527.5C 601.433,512.56 611.266,503.893 626.5,501.5 Z"/></g>
<g><path style="opacity:1" fill="#2f2f2f" d="M 622.5,511.5 C 636.445,509.223 646.612,514.223 653,526.5C 656.745,542.51 650.912,553.343 635.5,559C 621.165,560.92 611.665,555.087 607,541.5C 604.514,527.47 609.681,517.47 622.5,511.5 Z"/></g>
<g><path style="opacity:1" fill="#f7f8f7" d="M 512.5,520.5 C 528.445,519.104 534.612,526.104 531,541.5C 526.666,548.283 520.499,550.783 512.5,549C 504.39,544.936 501.557,538.436 504,529.5C 505.688,525.315 508.521,522.315 512.5,520.5 Z"/></g>
<g><path style="opacity:1" fill="#302f2f" d="M 467.5,519.5 C 480.818,519.649 486.985,526.315 486,539.5C 480.748,549.724 472.915,552.224 462.5,547C 453.308,535.908 454.975,526.741 467.5,519.5 Z"/></g>
<g><path style="opacity:1" fill="#303030" d="M 559.5,519.5 C 574.177,519.33 580.344,526.33 578,540.5C 573.849,548.34 567.349,551.173 558.5,549C 547.469,542.109 545.802,533.442 553.5,523C 555.727,522.059 557.727,520.892 559.5,519.5 Z"/></g>
<g><path style="opacity:1" fill="#2e2e2d" d="M 514.5,530.5 C 522.543,530.003 524.21,532.836 519.5,539C 517.299,539.825 515.466,539.325 514,537.5C 513.297,535.071 513.463,532.738 514.5,530.5 Z"/></g>
<g><path style="opacity:1" fill="#f7f8f7" d="M 510.5,556.5 C 535.841,556.005 545.341,568.005 539,592.5C 531.143,603.564 520.643,607.064 507.5,603C 493.128,594.415 489.628,582.581 497,567.5C 500.666,562.758 505.166,559.092 510.5,556.5 Z"/></g>
<g><path style="opacity:1" fill="#2f2f2f" d="M 512.5,565.5 C 528.333,564.867 534.5,572.2 531,587.5C 526.631,594.147 520.465,596.647 512.5,595C 501.987,589.072 499.82,580.905 506,570.5C 508.326,568.934 510.492,567.268 512.5,565.5 Z"/></g>
<g><path style="opacity:1" fill="#f7f7f6" d="M 456.5,575.5 C 470.425,573.832 477.258,579.832 477,593.5C 471.961,605.291 463.794,608.124 452.5,602C 444.744,591.697 446.077,582.864 456.5,575.5 Z"/></g>
<g><path style="opacity:1" fill="#f7f7f6" d="M 568.5,575.5 C 586.567,575.645 592.067,583.978 585,600.5C 573.36,608.891 564.694,606.557 559,593.5C 557.704,585.091 560.87,579.091 568.5,575.5 Z"/></g>
<g><path style="opacity:1" fill="#f8f8f6" d="M 635.5,576.5 C 650.495,581.37 656.662,591.703 654,607.5C 648.156,622.507 637.322,628.174 621.5,624.5C 609.525,618.553 604.358,608.887 606,595.5C 610.876,581.478 620.709,575.145 635.5,576.5 Z"/></g>
<g><path style="opacity:1" fill="#2e2e2d" d="M 459.5,585.5 C 467.877,585.274 469.544,588.441 464.5,595C 457.279,595.013 455.612,591.846 459.5,585.5 Z"/></g>
<g><path style="opacity:1" fill="#2b2b2a" d="M 570.5,585.5 C 578.486,584.998 580.486,588.165 576.5,595C 568.942,595.282 566.942,592.115 570.5,585.5 Z"/></g>
<g><path style="opacity:1" fill="#f8f8f7" d="M 383.5,612.5 C 381.816,607.324 381.15,601.991 381.5,596.5C 383.401,586.763 389.067,580.263 398.5,577C 414.119,574.557 424.619,580.723 430,595.5C 431.658,608.352 426.824,617.852 415.5,624C 401.753,628.278 391.087,624.444 383.5,612.5 Z"/></g>
<g><path style="opacity:1" fill="#323232" d="M 626.5,585.5 C 642.64,586.444 648.14,594.444 643,609.5C 636.507,617.189 629.007,618.356 620.5,613C 612.23,601.385 614.23,592.218 626.5,585.5 Z"/></g>
<g><path style="opacity:1" fill="#323232" d="M 402.5,585.5 C 414.878,585.38 421.045,591.38 421,603.5C 418.003,613.084 411.503,617.251 401.5,616C 391.51,610.693 388.676,602.859 393,592.5C 395.825,589.524 398.992,587.191 402.5,585.5 Z"/></g>
<g><path style="opacity:1" fill="#f7f7f6" d="M 527.5,678.5 C 525.901,678.232 524.568,678.566 523.5,679.5C 504.155,681.083 491.322,672.75 485,654.5C 481.931,633.46 490.431,619.627 510.5,613C 530.453,611.228 543.953,619.728 551,638.5C 553.137,657.916 545.304,671.249 527.5,678.5 Z"/></g>
<g><path style="opacity:1" fill="#f7f6f5" d="M 445.5,622.5 C 466.685,620.855 476.851,630.522 476,651.5C 470.285,668.608 458.785,674.441 441.5,669C 428.024,660.546 424.524,649.046 431,634.5C 434.811,629.189 439.644,625.189 445.5,622.5 Z"/></g>
<g><path style="opacity:1" fill="#2f2f2f" d="M 510.5,622.5 C 535.225,621.996 544.725,633.662 539,657.5C 531.962,668.184 522.129,672.018 509.5,669C 497.099,663.032 491.932,653.199 494,639.5C 497.019,631.316 502.519,625.649 510.5,622.5 Z"/></g>
<g><path style="opacity:1" fill="#f8f7f6" d="M 573.5,669.5 C 566.602,665.608 561.935,659.941 559.5,652.5C 558.292,631.875 567.959,622.042 588.5,623C 600.426,626.349 607.093,634.183 608.5,646.5C 605.022,666.416 593.355,674.082 573.5,669.5 Z"/></g>
<g><path style="opacity:1" fill="#f9f8f6" d="M 397.5,659.5 C 388.937,650.028 389.604,641.361 399.5,633.5C 408.158,630.774 414.991,633.107 420,640.5C 422.161,658.168 414.661,664.502 397.5,659.5 Z"/></g>
<g><path style="opacity:1" fill="#f7f7f5" d="M 640.5,658.5 C 634.426,662.918 628.092,663.418 621.5,660C 612.26,651.346 612.26,642.846 621.5,634.5C 631.042,630.515 638.542,632.848 644,641.5C 645.315,647.754 644.148,653.42 640.5,658.5 Z"/></g>
<g><path style="opacity:1" fill="#303030" d="M 448.5,631.5 C 465.417,632.679 470.584,641.012 464,656.5C 455.644,663.458 447.644,663.125 440,655.5C 434.696,644.467 437.529,636.467 448.5,631.5 Z"/></g>
<g><path style="opacity:1" fill="#323231" d="M 579.5,631.5 C 596.429,632.705 601.596,641.039 595,656.5C 588.766,662.008 581.933,662.841 574.5,659C 565.308,647.908 566.975,638.741 579.5,631.5 Z"/></g>
<g><path style="opacity:1" fill="#2d2d2c" d="M 627.5,642.5 C 634.02,642.717 635.687,645.551 632.5,651C 625.416,651.475 623.749,648.642 627.5,642.5 Z"/></g>
<g><path style="opacity:1" fill="#2e2e2d" d="M 403.5,642.5 C 410.486,642.331 412.153,645.164 408.5,651C 404.229,652.513 401.895,651.013 401.5,646.5C 401.752,644.927 402.418,643.594 403.5,642.5 Z"/></g>
<g><path style="opacity:1" fill="#979797" d="M 956.5,956.5 C 963.841,956.334 971.174,956.5 978.5,957C 990.814,962.269 994.314,971.102 989,983.5C 986.292,987.104 982.792,989.604 978.5,991C 971.167,991.667 963.833,991.667 956.5,991C 944.525,985.548 941.025,976.715 946,964.5C 948.855,960.789 952.355,958.123 956.5,956.5 Z"/></g>
<g><path style="opacity:1" fill="#3f3f3f" d="M 972.5,964.5 C 973.833,964.5 975.167,964.5 976.5,964.5C 976.778,966.346 976.111,967.68 974.5,968.5C 972.889,967.68 972.222,966.346 972.5,964.5 Z"/></g>
<g><path style="opacity:1" fill="#3a3a3a" d="M 960.5,969.5 C 963.685,969.02 966.519,969.686 969,971.5C 969.499,975.152 969.665,978.818 969.5,982.5C 966.316,982.167 962.982,982 959.5,982C 956.833,979.667 956.833,977.333 959.5,975C 961.9,974.814 964.234,974.314 966.5,973.5C 963.833,972.833 961.167,972.167 958.5,971.5C 959.243,970.818 959.909,970.151 960.5,969.5 Z"/></g>
<g><path style="opacity:1" fill="#353535" d="M 972.5,969.5 C 973.5,969.5 974.5,969.5 975.5,969.5C 975.5,973.833 975.5,978.167 975.5,982.5C 974.5,982.5 973.5,982.5 972.5,982.5C 972.5,978.167 972.5,973.833 972.5,969.5 Z"/></g>
<g><path style="opacity:1" fill="#8b8b8b" d="M 961.5,976.5 C 963.167,976.5 964.833,976.5 966.5,976.5C 966.254,979.47 964.588,980.803 961.5,980.5C 961.5,979.167 961.5,977.833 961.5,976.5 Z"/></g>
</svg>
